<?xml version="1.0" encoding="utf-8"?>
<!-- Generator: Adobe Illustrator 28.0.0, SVG Export Plug-In . SVG Version: 6.00 Build 0)  -->
<svg version="1.1" id="레이어_1" xmlns="http://www.w3.org/2000/svg" xmlns:xlink="http://www.w3.org/1999/xlink" x="0px"
	 y="0px" viewBox="0 0 12 16" style="enable-background:new 0 0 12 16;" xml:space="preserve">
<style type="text/css">
	.st0{fill:#FFFFFF;}
</style>
<path class="st0" d="M10.71,4.71c0.39-0.39,0.39-1.02,0-1.42s-1.02-0.39-1.42,0L6,6.58L2.71,3.29c-0.39-0.39-1.02-0.39-1.42,0
	s-0.39,1.02,0,1.42L4.58,8l-3.29,3.29c-0.39,0.39-0.39,1.02,0,1.42s1.02,0.39,1.42,0L6,9.42l3.29,3.29c0.39,0.39,1.02,0.39,1.42,0
	s0.39-1.02,0-1.42L7.42,8L10.71,4.71z"/>
</svg>
