<?xml version="1.0" encoding="utf-8"?>
<!-- Generator: Adobe Illustrator 28.0.0, SVG Export Plug-In . SVG Version: 6.00 Build 0)  -->
<svg version="1.1" id="레이어_1" xmlns="http://www.w3.org/2000/svg" xmlns:xlink="http://www.w3.org/1999/xlink" x="0px"
	 y="0px" viewBox="0 0 14 16" style="enable-background:new 0 0 14 16;" xml:space="preserve">
<style type="text/css">
	.st0{fill:#FFFFFF;}
</style>
<path class="st0" d="M0,3c0-0.55,0.45-1,1-1h12c0.55,0,1,0.45,1,1s-0.45,1-1,1H1C0.45,4,0,3.55,0,3z M0,8c0-0.55,0.45-1,1-1h12
	c0.55,0,1,0.45,1,1c0,0.55-0.45,1-1,1H1C0.45,9,0,8.55,0,8z M14,13c0,0.55-0.45,1-1,1H1c-0.55,0-1-0.45-1-1s0.45-1,1-1h12
	C13.55,12,14,12.45,14,13z"/>
</svg>
