<svg xmlns="http://www.w3.org/2000/svg" width="174" height="55" viewBox="0 0 174 55">
  <g id="그룹_2777" data-name="그룹 2777" transform="translate(-27 -35)">
    <g id="그룹_520" data-name="그룹 520" transform="translate(26.83 34.773)">
      <rect id="사각형_43" data-name="사각형 43" width="174" height="55" rx="8" transform="translate(0.17 0.227)" fill="#fff"/>
    </g>
    <g id="또가솔루션_logo" transform="translate(39.68 50.806)">
      <g id="그룹_2774" data-name="그룹 2774" transform="translate(112.088 5.78)">
        <path id="패스_9004" data-name="패스 9004" d="M179.022,20.329V27.07h7.452V25.01h-5.067V20.329Z" transform="translate(-150.242 -10.113)" fill="#4a74fc"/>
        <path id="패스_9005" data-name="패스 9005" d="M184.96,7.364v.871h-1.844v1.73h1.844v.773h-1.844v1.73h1.844v4.586h2.386V7.364Z" transform="translate(-151.115 -7.349)" fill="#4a74fc"/>
        <path id="패스_9006" data-name="패스 9006" d="M161.912,21.438h2.236V19.2h3.371V17.443h-8.882V19.2h3.275Z" transform="translate(-145.898 -9.497)" fill="#4a74fc"/>
        <path id="패스_9007" data-name="패스 9007" d="M147.032,14.6h2.236v2.236H152.3V18.6h-8.2V16.836h2.932Z" transform="translate(-142.799 -8.891)" fill="#4a74fc"/>
        <path id="패스_9008" data-name="패스 9008" d="M142.447,13.186l1.793,1.334L147.847,9.5l3.639,5.019,1.759-1.334-4.185-5.822H146.63Z" transform="translate(-142.447 -7.349)" fill="#4a74fc"/>
        <path id="패스_9009" data-name="패스 9009" d="M172.419,13.167l1.793,1.334L177.1,9.482l2.916,5.019,1.759-1.334-3.464-5.822H175.88Z" transform="translate(-148.835 -7.345)" fill="#4a74fc"/>
        <path id="패스_9010" data-name="패스 9010" d="M167.519,12.609V14.35h-7.352l-1.516-1.516V10.108h6.491V9.365h-6.505V7.608h8.882v4.265h-6.483v.736Z" transform="translate(-145.898 -7.401)" fill="#4a74fc"/>
        <path id="패스_9011" data-name="패스 9011" d="M144.1,20.8v1.66h5.818v.7h-5.8v2.5l1.516,1.516H152.3V25.524h-5.8v-.695h5.8V20.8Z" transform="translate(-142.799 -10.212)" fill="#4a74fc"/>
      </g>
      <g id="그룹_2775" data-name="그룹 2775" transform="translate(25.85 3.917)">
        <path id="패스_9012" data-name="패스 9012" d="M54.806,4.978H52.421V6.857H49.385V8.665H51.12l-.289.325a3.722,3.722,0,1,0,5.564,0l-.289-.325h1.626V6.857H54.84Zm.506,6.433a1.7,1.7,0,1,1,0-.006v.008" transform="translate(-36.375 -4.978)" fill="#3c3e50"/>
        <path id="패스_9013" data-name="패스 9013" d="M64.171,7.368H61.786v8.419h2.385V12.932h1.842V10.365H64.17Z" transform="translate(-39.019 -5.487)" fill="#3c3e50"/>
        <path id="패스_9014" data-name="패스 9014" d="M129.391,16.093h-2.53v2.53h-2.892v2.2h8.2v-2.2h-2.783Z" transform="translate(-52.271 -7.347)" fill="#3c3e50"/>
        <path id="패스_9015" data-name="패스 9015" d="M129.8,27.714h2.385V23.349h-8.167v2.06H129.8Z" transform="translate(-52.281 -8.893)" fill="#3c3e50"/>
        <path id="패스_9016" data-name="패스 9016" d="M132.41,13.944l-3.141-4.373h3.108v-2.2h-8.748v2.2h3.07l-3.144,4.373,1.767,1.409L128,11.632l2.675,3.722Z" transform="translate(-52.183 -5.487)" fill="#3c3e50"/>
        <rect id="사각형_298" data-name="사각형 298" width="7.517" height="2.132" transform="translate(43.366 11.348)" fill="#3c3e50"/>
        <rect id="사각형_299" data-name="사각형 299" width="2.385" height="8.42" transform="translate(52.582 1.879)" fill="#3c3e50"/>
        <path id="패스_9017" data-name="패스 9017" d="M92.98,7.038V4.978H90.595v2.06a4.229,4.229,0,1,0,5.457,4.047A4.4,4.4,0,0,0,92.98,7.037m-1.192,6.108a1.988,1.988,0,1,1,1.988-1.988,2.029,2.029,0,0,1-1.988,1.988" transform="translate(-44.518 -4.978)" fill="#3c3e50"/>
        <path id="패스_9018" data-name="패스 9018" d="M37.162,20.133H32.9V22.3H43.884V20.133H39.656v-1.7H37.162Z" transform="translate(-32.862 -7.846)" fill="#3c3e50"/>
        <path id="패스_9019" data-name="패스 9019" d="M32.852,13.546,34.406,15.1h3.253V12.823H35.165V9.644h2.494V7.368H32.852Z" transform="translate(-32.852 -5.487)" fill="#3c3e50"/>
        <path id="패스_9020" data-name="패스 9020" d="M45.566,9.644V7.368H40.794v6.179L42.312,15.1h3.253V12.824H43.108V9.643Z" transform="translate(-34.545 -5.487)" fill="#3c3e50"/>
        <path id="패스_9021" data-name="패스 9021" d="M82.036,7.368H79.651v8.419h2.385V12.932h1.843V10.365H82.036Z" transform="translate(-42.826 -5.487)" fill="#3c3e50"/>
        <path id="패스_9022" data-name="패스 9022" d="M72.071,13.546V7.368H69.686v6.9L71.2,15.787h4.879V13.546Z" transform="translate(-40.702 -5.487)" fill="#3c3e50"/>
        <path id="패스_9023" data-name="패스 9023" d="M118.181,7.368H115.8v8.419h2.385V12.9h1.844V10.365h-1.843Z" transform="translate(-50.529 -5.487)" fill="#3c3e50"/>
        <path id="패스_9024" data-name="패스 9024" d="M110.341,7.368h-4.88V9.607h4.012v6.18h.867l1.518-1.517V8.885Z" transform="translate(-48.326 -5.487)" fill="#3c3e50"/>
      </g>
      <g id="그룹_2776" data-name="그룹 2776" transform="translate(0 0)">
        <path id="패스_9025" data-name="패스 9025" d="M19.253,5.61,12.668.449a2.138,2.138,0,0,0-2.62,0L0,8.293v7.915a2.138,2.138,0,0,0,2.132,2.125h8.985v3.934a.458.458,0,0,0,.11.307.482.482,0,0,0,.669.055l7.357-5.846a1.888,1.888,0,0,0,.6-1.424v-8.5a1.549,1.549,0,0,0-.6-1.25M16.4,17.223l-3.879,3.053V17.113H2.148a.935.935,0,0,1-.929-.929v-7.3L8.883,2.951l.11-.087,7.4,5.814Z" fill="#4a74fc"/>
        <path id="패스_9026" data-name="패스 9026" d="M16.727,9.454V18l-3.879,3.052V17.889H2.479a.935.935,0,0,1-.929-.929v-7.3L9.213,3.727l.11-.087Z" transform="translate(-0.33 -0.776)" fill="#ffe600"/>
      </g>
    </g>
  </g>
</svg>
