<?xml version="1.0" encoding="utf-8"?>
<!-- Generator: Adobe Illustrator 28.0.0, SVG Export Plug-In . SVG Version: 6.00 Build 0)  -->
<svg version="1.1" id="레이어_1" xmlns="http://www.w3.org/2000/svg" xmlns:xlink="http://www.w3.org/1999/xlink" x="0px"
	 y="0px" viewBox="0 0 334.96 57.01" style="enable-background:new 0 0 334.96 57.01;" xml:space="preserve">
<g>
	<g>
		<path d="M24.27,13.91c1.22,0,2.33,0.16,3.33,0.49c1,0.32,1.85,0.8,2.56,1.42c0.71,0.62,1.25,1.38,1.64,2.27
			c0.38,0.89,0.58,1.91,0.58,3.06c0,0.65-0.1,1.28-0.31,1.89c-0.2,0.61-0.48,1.18-0.83,1.71c-0.35,0.53-0.77,0.99-1.26,1.39
			c-0.49,0.4-1.03,0.68-1.6,0.85c1.58,0.38,2.84,1.15,3.76,2.29c0.92,1.14,1.39,2.56,1.39,4.27c0,1.46-0.25,2.72-0.76,3.78
			c-0.5,1.06-1.19,1.93-2.05,2.61c-0.86,0.68-1.87,1.19-3.01,1.53c-1.14,0.34-2.35,0.5-3.62,0.5H12.82V13.91H24.27z M23.08,25.21
			c1.15,0,2.05-0.34,2.7-1.03s0.97-1.48,0.97-2.39c0-0.53-0.06-1.01-0.18-1.46c-0.12-0.44-0.32-0.83-0.61-1.15
			c-0.29-0.32-0.67-0.58-1.13-0.76c-0.47-0.18-1.05-0.27-1.75-0.27h-4.14v7.06H23.08z M23.73,37.09c0.67,0,1.25-0.1,1.75-0.29
			c0.49-0.19,0.9-0.47,1.22-0.83c0.32-0.36,0.56-0.78,0.72-1.26c0.16-0.48,0.23-1,0.23-1.55c0-0.48-0.07-0.95-0.22-1.4
			s-0.37-0.86-0.67-1.22c-0.3-0.36-0.68-0.65-1.15-0.86c-0.47-0.22-1.04-0.32-1.71-0.32h-4.97v7.74H23.73z"/>
		<path d="M36.22,35.47c0-2.02,0.57-3.62,1.71-4.82c1.14-1.2,2.71-1.96,4.7-2.27l6.48-0.97v-1.44c0-0.96-0.25-1.78-0.74-2.45
			c-0.49-0.67-1.29-1.01-2.39-1.01c-0.41,0-0.83,0.05-1.26,0.14c-0.43,0.1-0.83,0.27-1.21,0.52c-0.37,0.25-0.68,0.58-0.94,0.99
			c-0.25,0.41-0.41,0.92-0.49,1.55h-5.33c0.05-1.18,0.32-2.21,0.83-3.1c0.5-0.89,1.17-1.62,2-2.2c0.83-0.58,1.78-1.01,2.86-1.3
			s2.23-0.43,3.46-0.43c1.58,0,2.94,0.2,4.07,0.61c1.13,0.41,2.05,0.98,2.75,1.71c0.71,0.73,1.23,1.62,1.57,2.66
			c0.34,1.04,0.5,2.2,0.5,3.47v14.8h-5.65v-1.48c-0.72,0.55-1.65,0.99-2.79,1.31c-1.14,0.32-2.36,0.49-3.65,0.49
			c-1.01,0-1.91-0.16-2.72-0.49c-0.8-0.32-1.48-0.79-2.03-1.39c-0.55-0.6-0.98-1.32-1.28-2.16C36.37,37.4,36.22,36.48,36.22,35.47z
			 M44.65,37.7c0.77,0,1.53-0.16,2.29-0.49c0.76-0.32,1.48-0.76,2.18-1.31v-4.68l-4.03,0.58c-0.62,0.07-1.14,0.23-1.55,0.49
			c-0.41,0.25-0.74,0.55-0.99,0.88c-0.25,0.34-0.43,0.7-0.52,1.08c-0.1,0.38-0.14,0.76-0.14,1.12c0,0.67,0.24,1.23,0.72,1.67
			C43.08,37.48,43.76,37.7,44.65,37.7z"/>
		<path d="M70.31,35.79c0-0.46-0.22-0.95-0.67-1.49c-0.44-0.54-1.34-1.1-2.68-1.67c-1.61-0.67-2.94-1.32-4-1.94
			c-1.06-0.62-1.9-1.25-2.52-1.87c-0.62-0.62-1.06-1.27-1.31-1.94s-0.38-1.39-0.38-2.16c0-0.72,0.15-1.44,0.45-2.16
			c0.3-0.72,0.79-1.36,1.46-1.93s1.54-1.03,2.59-1.39c1.06-0.36,2.34-0.54,3.85-0.54c1.66,0,3.05,0.18,4.19,0.54
			c1.14,0.36,2.05,0.85,2.74,1.48c0.68,0.62,1.16,1.36,1.44,2.21c0.28,0.85,0.39,1.78,0.34,2.79l-5.33,0.04
			c0.02-0.43-0.01-0.85-0.09-1.26c-0.08-0.41-0.24-0.77-0.47-1.1c-0.23-0.32-0.55-0.58-0.97-0.77c-0.42-0.19-0.94-0.29-1.57-0.29
			c-0.79,0-1.45,0.23-1.98,0.68c-0.53,0.46-0.79,0.95-0.79,1.48c0,0.31,0.07,0.62,0.2,0.94c0.13,0.31,0.39,0.64,0.77,0.99
			c0.38,0.35,0.91,0.72,1.58,1.12c0.67,0.4,1.55,0.85,2.63,1.35c2.11,0.96,3.68,1.99,4.72,3.1c1.03,1.1,1.55,2.47,1.55,4.1
			c0,0.86-0.2,1.67-0.61,2.43c-0.41,0.76-1,1.42-1.76,1.98c-0.77,0.56-1.71,1.01-2.83,1.33c-1.12,0.32-2.39,0.49-3.83,0.49
			c-1.7,0-3.11-0.2-4.23-0.61c-1.12-0.41-2-0.95-2.66-1.64c-0.66-0.68-1.13-1.47-1.4-2.36c-0.28-0.89-0.41-1.81-0.41-2.77h5.4
			c0,0.96,0.26,1.67,0.77,2.14c0.52,0.47,1.4,0.7,2.65,0.7C69.26,37.77,70.31,37.11,70.31,35.79z"/>
		<path d="M85.9,12.03v4.79h-5.76v-4.79H85.9z M85.9,18.95v23h-5.76v-23H85.9z"/>
		<path d="M95.98,12.03v29.92h-5.76V12.03H95.98z"/>
		<path d="M112.94,23.3c-0.34-0.19-0.73-0.37-1.19-0.52c-0.46-0.16-1-0.22-1.62-0.2c-1.15,0.02-2.12,0.33-2.9,0.92
			c-0.78,0.59-1.17,1.53-1.17,2.83v15.62h-5.76v-23h5.76v1.87c1.3-1.37,2.96-2.05,5-2.05c0.58,0,1.08,0.07,1.51,0.22
			s0.73,0.3,0.9,0.47L112.94,23.3z"/>
		<path d="M122.05,12.03v4.79h-5.76v-4.79H122.05z M122.05,18.95v23h-5.76v-23H122.05z"/>
		<path d="M142.13,13.91v10.8l7.16-10.8h6.59l-9.11,13.9l9.65,14.15h-6.66l-7.63-11.02v11.02h-6.12V13.91H142.13z"/>
		<path d="M164.81,12.03v4.79h-5.76v-4.79H164.81z M164.81,18.95v23h-5.76v-23H164.81z"/>
		<path d="M194.69,26.69c0-1.22-0.35-2.11-1.06-2.66c-0.71-0.55-1.53-0.83-2.47-0.83c-0.94,0-1.75,0.28-2.45,0.83
			c-0.7,0.55-1.04,1.44-1.04,2.66v15.26h-5.76V26.69c0-1.22-0.35-2.11-1.06-2.66c-0.71-0.55-1.53-0.83-2.47-0.83
			c-0.94,0-1.75,0.28-2.45,0.83c-0.7,0.55-1.04,1.44-1.04,2.66v15.26h-5.76v-23h5.76v2.23c0.5-0.74,1.27-1.34,2.29-1.8
			c1.02-0.46,2.15-0.68,3.4-0.68c1.49,0,2.72,0.3,3.69,0.9s1.73,1.36,2.29,2.27c0.67-1.01,1.58-1.79,2.74-2.34
			c1.15-0.55,2.28-0.83,3.38-0.83c1.44,0,2.65,0.19,3.64,0.58c0.98,0.38,1.78,0.92,2.39,1.62c0.61,0.7,1.06,1.54,1.33,2.54
			c0.28,1,0.41,2.11,0.41,3.33v15.19h-5.76V26.69z"/>
		<path d="M209.78,10.56v9.58h-5.04v-9.58H209.78z"/>
		<path d="M225.33,35.79c0-0.46-0.22-0.95-0.67-1.49c-0.44-0.54-1.34-1.1-2.68-1.67c-1.61-0.67-2.94-1.32-4-1.94
			c-1.06-0.62-1.9-1.25-2.52-1.87c-0.62-0.62-1.06-1.27-1.31-1.94s-0.38-1.39-0.38-2.16c0-0.72,0.15-1.44,0.45-2.16
			c0.3-0.72,0.79-1.36,1.46-1.93s1.54-1.03,2.59-1.39c1.06-0.36,2.34-0.54,3.85-0.54c1.66,0,3.05,0.18,4.19,0.54
			c1.14,0.36,2.05,0.85,2.74,1.48c0.68,0.62,1.16,1.36,1.44,2.21c0.28,0.85,0.39,1.78,0.34,2.79l-5.33,0.04
			c0.02-0.43-0.01-0.85-0.09-1.26c-0.08-0.41-0.24-0.77-0.47-1.1c-0.23-0.32-0.55-0.58-0.97-0.77c-0.42-0.19-0.94-0.29-1.57-0.29
			c-0.79,0-1.45,0.23-1.98,0.68c-0.53,0.46-0.79,0.95-0.79,1.48c0,0.31,0.07,0.62,0.2,0.94c0.13,0.31,0.39,0.64,0.77,0.99
			c0.38,0.35,0.91,0.72,1.58,1.12c0.67,0.4,1.55,0.85,2.63,1.35c2.11,0.96,3.68,1.99,4.72,3.1c1.03,1.1,1.55,2.47,1.55,4.1
			c0,0.86-0.2,1.67-0.61,2.43c-0.41,0.76-1,1.42-1.76,1.98c-0.77,0.56-1.71,1.01-2.83,1.33s-2.39,0.49-3.83,0.49
			c-1.7,0-3.11-0.2-4.23-0.61s-2-0.95-2.66-1.64c-0.66-0.68-1.13-1.47-1.4-2.36c-0.28-0.89-0.41-1.81-0.41-2.77h5.4
			c0,0.96,0.26,1.67,0.77,2.14c0.52,0.47,1.4,0.7,2.65,0.7C224.27,37.77,225.33,37.11,225.33,35.79z"/>
		<path d="M256.61,13.91c1.22,0,2.33,0.16,3.33,0.49c1,0.32,1.85,0.8,2.56,1.42c0.71,0.62,1.25,1.38,1.64,2.27
			c0.38,0.89,0.58,1.91,0.58,3.06c0,0.65-0.1,1.28-0.31,1.89c-0.2,0.61-0.48,1.18-0.83,1.71c-0.35,0.53-0.77,0.99-1.26,1.39
			c-0.49,0.4-1.03,0.68-1.6,0.85c1.58,0.38,2.84,1.15,3.76,2.29c0.92,1.14,1.39,2.56,1.39,4.27c0,1.46-0.25,2.72-0.76,3.78
			c-0.5,1.06-1.19,1.93-2.05,2.61c-0.86,0.68-1.87,1.19-3.01,1.53s-2.35,0.5-3.62,0.5h-11.27V13.91H256.61z M255.43,25.21
			c1.15,0,2.05-0.34,2.7-1.03c0.65-0.68,0.97-1.48,0.97-2.39c0-0.53-0.06-1.01-0.18-1.46c-0.12-0.44-0.32-0.83-0.61-1.15
			c-0.29-0.32-0.67-0.58-1.13-0.76c-0.47-0.18-1.05-0.27-1.75-0.27h-4.14v7.06H255.43z M256.07,37.09c0.67,0,1.25-0.1,1.75-0.29
			c0.49-0.19,0.9-0.47,1.22-0.83c0.32-0.36,0.56-0.78,0.72-1.26c0.16-0.48,0.23-1,0.23-1.55c0-0.48-0.07-0.95-0.22-1.4
			c-0.14-0.46-0.37-0.86-0.67-1.22c-0.3-0.36-0.68-0.65-1.15-0.86c-0.47-0.22-1.04-0.32-1.71-0.32h-4.97v7.74H256.07z"/>
		<path d="M275.05,12.03v29.92h-5.76V12.03H275.05z"/>
		<path d="M288.8,42.27c-1.8,0-3.32-0.21-4.57-0.63c-1.25-0.42-2.26-1-3.04-1.75c-0.78-0.74-1.34-1.61-1.67-2.59s-0.5-2.04-0.5-3.17
			v-7.31c0-1.13,0.17-2.18,0.5-3.17c0.34-0.98,0.89-1.85,1.67-2.59c0.78-0.74,1.79-1.33,3.04-1.75s2.77-0.63,4.57-0.63
			c1.82,0,3.36,0.21,4.61,0.63c1.25,0.42,2.26,1,3.02,1.75c0.77,0.74,1.33,1.61,1.67,2.59c0.35,0.98,0.52,2.04,0.52,3.17v7.31
			c0,1.13-0.17,2.18-0.52,3.17c-0.35,0.98-0.91,1.85-1.67,2.59c-0.77,0.74-1.78,1.33-3.02,1.75
			C292.16,42.06,290.62,42.27,288.8,42.27z M292.87,26.25c0-1.34-0.35-2.3-1.06-2.88s-1.7-0.86-2.97-0.86c-1.3,0-2.3,0.29-3.01,0.86
			s-1.06,1.54-1.06,2.88v7.7c0,1.34,0.35,2.3,1.06,2.88c0.71,0.58,1.71,0.86,3.01,0.86c1.27,0,2.26-0.29,2.97-0.86
			c0.71-0.58,1.06-1.54,1.06-2.88V26.25z"/>
		<path d="M310.22,41.91c-1.15,0-2.21-0.15-3.17-0.45s-1.78-0.79-2.47-1.48c-0.68-0.68-1.22-1.56-1.6-2.63
			c-0.38-1.07-0.58-2.38-0.58-3.94v-6.23c0-1.54,0.19-2.84,0.58-3.92c0.38-1.08,0.92-1.96,1.6-2.65c0.68-0.68,1.51-1.18,2.47-1.48
			c0.96-0.3,2.02-0.45,3.17-0.45c1.27,0,2.38,0.16,3.31,0.47c0.94,0.31,1.87,0.9,2.81,1.76v-1.98h5.76v22.57
			c0,1.8-0.31,3.28-0.92,4.43c-0.61,1.15-1.39,2.06-2.34,2.72s-2.01,1.11-3.19,1.35c-1.18,0.24-2.32,0.36-3.42,0.36
			c-1.1,0-2.21-0.1-3.33-0.29s-2.13-0.54-3.04-1.04c-0.91-0.5-1.66-1.19-2.23-2.05s-0.86-1.97-0.86-3.31h5.8
			c0,0.53,0.11,0.98,0.32,1.35c0.22,0.37,0.5,0.67,0.85,0.9c0.35,0.23,0.74,0.39,1.19,0.49s0.91,0.14,1.39,0.14
			c1.22,0,2.2-0.34,2.92-1.03c0.72-0.68,1.09-1.88,1.12-3.58v-2.3c-0.7,0.72-1.61,1.28-2.74,1.67
			C312.47,41.72,311.35,41.91,310.22,41.91z M316.34,26.51c0-1.37-0.37-2.38-1.1-3.02c-0.73-0.65-1.72-0.97-2.97-0.97
			c-1.25,0-2.24,0.32-2.97,0.97s-1.1,1.66-1.1,3.02v6.88c0,1.37,0.37,2.38,1.1,3.02s1.72,0.97,2.97,0.97c1.25,0,2.24-0.32,2.97-0.97
			c0.73-0.65,1.1-1.66,1.1-3.02V26.51z"/>
	</g>
</g>
</svg>
